<?xml version="1.0" encoding="UTF-8"?> <svg xmlns="http://www.w3.org/2000/svg" width="48.298" height="54.771" viewBox="0 0 48.298 54.771"><g id="CSS.3" transform="translate(0 -92.448)"><g id="_0170baff" data-name="#0170baff" transform="translate(0 92.448)"><path id="Trazado_54" data-name="Trazado 54" d="M0,92.45q24.15,0,48.3,0c-.886,10.013-1.758,20.026-2.681,30.036q-.823,9.6-1.71,19.189c-3.436.91-6.837,1.947-10.272,2.862-3.154.926-6.334,1.764-9.49,2.682h-.093c-3-.893-6.036-1.679-9.039-2.572-3.544-.955-7.058-2.021-10.6-2.972-.462-4.792-.879-9.588-1.29-14.383-.776-8.86-1.62-17.714-2.366-26.575-.259-2.667-.444-5.342-.753-8V92.45M24.225,96.4c-.034,1.923.025,3.848-.034,5.77-5.523-.02-11.047,0-16.571,0,.095,1.867.345,3.721.6,5.573,5.139.191,10.284-.007,15.423.147-4.5,2.017-9.046,3.916-13.562,5.89a6.092,6.092,0,0,0-1.148.554c.038,2.051.369,4.09.514,6.136,2.739-.01,5.476-.054,8.215-.058,2.195-.011,4.391.033,6.586-.016-.1,3.372.033,6.748-.071,10.12-1.477-.219-2.935-.548-4.407-.81-1.16-.253-2.349-.384-3.492-.717-.163-1.618-.276-3.242-.42-4.862a3.658,3.658,0,0,0-1.023-.1c-1.659.01-3.32-.006-4.98.02a92.559,92.559,0,0,0,.919,9.306c1.637.427,3.276.845,4.91,1.29,2.5.681,5.037,1.248,7.544,1.918a3.169,3.169,0,0,0,.909.148c.167,2.048.038,4.108.069,6.162a12.569,12.569,0,0,0,1.7-.408c4.746-1.289,9.486-2.6,14.229-3.9.236-1.866.346-3.744.533-5.613q.74-8.526,1.508-17.051c.606-6.5,1.131-13.009,1.741-19.51C37.357,96.4,30.791,96.379,24.225,96.4Z" transform="translate(0 -92.448)" fill="#0170ba"></path></g><g id="_29a9dfff" data-name="#29a9dfff" transform="translate(24.14 96.39)"><path id="Trazado_55" data-name="Trazado 55" d="M170.895,120.346c6.566-.021,13.132,0,19.7-.008-.611,6.5-1.135,13.009-1.741,19.51q-.776,8.524-1.508,17.051c-.187,1.87-.3,3.748-.533,5.613-4.743,1.3-9.483,2.615-14.229,3.9a12.571,12.571,0,0,1-1.7.408c-.031-2.053.1-4.114-.069-6.162l.171-.034c4.414-1.108,8.8-2.328,13.2-3.475.557-6.247,1.174-12.49,1.566-18.75-3.745.02-7.492.008-11.237.024-.546,0-1.091,0-1.634-.04,2.015-1.037,4.135-1.86,6.2-2.786,1.986-.9,4-1.744,5.988-2.627a5.547,5.547,0,0,0,1.132-.587,9.328,9.328,0,0,0,.178-1.5c.114-1.583.318-3.157.394-4.742-5.3-.042-10.608-.006-15.913-.034C170.92,124.194,170.861,122.27,170.895,120.346Z" transform="translate(-170.81 -120.336)" fill="#29a9df"></path><path id="Trazado_56" data-name="Trazado 56" d="M171.171,290.13c2.561-.044,5.123.025,7.685.008-.143,2.619-.36,5.233-.5,7.852-1.57.513-3.164.947-4.747,1.422a18.448,18.448,0,0,0-2.513.838C171.2,296.879,171.066,293.5,171.171,290.13Z" transform="translate(-171.059 -266.121)" fill="#29a9df"></path></g><g id="_cfcfcfff" data-name="#cfcfcfff" transform="translate(7.62 102.161)"><path id="Trazado_57" data-name="Trazado 57" d="M53.92,161.182c5.523-.006,11.047-.021,16.571,0,.072,6.077-.018,12.154.061,18.228-2.195.048-4.391,0-6.586.016-2.739,0-5.476.048-8.215.058-.146-2.046-.476-4.086-.514-6.136a6.092,6.092,0,0,1,1.148-.554c4.515-1.974,9.066-3.874,13.562-5.89-5.139-.154-10.284.044-15.423-.147C54.265,164.9,54.015,163.049,53.92,161.182Z" transform="translate(-53.92 -161.171)" fill="#cfcfcf"></path><path id="Trazado_58" data-name="Trazado 58" d="M69.76,315.96c1.661-.025,3.321-.01,4.98-.02a3.66,3.66,0,0,1,1.023.1c.144,1.62.257,3.243.42,4.862,1.143.332,2.332.464,3.492.717,1.471.261,2.93.591,4.407.81.141,2.052-.106,4.118.13,6.163l-.171.034a3.169,3.169,0,0,1-.909-.148c-2.507-.67-5.041-1.237-7.544-1.918-1.634-.445-3.273-.864-4.91-1.29A92.557,92.557,0,0,1,69.76,315.96Z" transform="translate(-67.521 -294.067)" fill="#cfcfcf"></path></g><g id="_ffffffff" data-name="#ffffffff" transform="translate(24.181 102.171)"><path id="Trazado_59" data-name="Trazado 59" d="M171.11,161.24c5.305.028,10.609-.008,15.913.034-.076,1.584-.28,3.159-.394,4.742a9.327,9.327,0,0,1-.178,1.5,5.546,5.546,0,0,1-1.132.587c-1.993.883-4,1.727-5.988,2.627-2.069.926-4.189,1.748-6.2,2.786.543.04,1.088.042,1.634.04,3.745-.016,7.492,0,11.237-.024-.391,6.259-1.009,12.5-1.566,18.75-4.4,1.148-8.788,2.367-13.2,3.475-.236-2.045.011-4.111-.13-6.163a18.45,18.45,0,0,1,2.513-.838c1.583-.475,3.177-.909,4.747-1.422.136-2.619.353-5.233.5-7.852-2.562.017-5.124-.052-7.685-.008C171.092,173.394,171.182,167.317,171.11,161.24Z" transform="translate(-171.1 -161.24)" fill="#fff"></path></g></g></svg> 