<svg width="256" height="256" fill="none" xmlns="http://www.w3.org/2000/svg"><ellipse opacity=".05" cx="128.889" cy="230.77" rx="99.517" ry="13.499" fill="#000"/><path d="M180.212 229.32H75.792a8.03 8.03 0 01-8.033-8.032 8.03 8.03 0 018.032-8.033h104.421a8.03 8.03 0 018.032 8.033 8.029 8.029 0 01-8.032 8.032z" fill="#D6DBDC"/><path d="M148.082 181.126v-8.032H107.92v8.032c0 17.76-6.338 32.129-24.098 32.129h88.356c-17.759 0-24.096-14.369-24.096-32.129z" fill="#AFB6BB"/><path d="M232.417 181.126H23.584c-6.655 0-12.053-5.398-12.053-12.053V144.98H244.47v24.093c0 6.655-5.398 12.053-12.053 12.053z" fill="#E7ECED"/><path d="M140.049 169.078h-24.097a4.017 4.017 0 010-8.033h24.097a4.018 4.018 0 014.017 4.016c0 2.217-1.8 4.017-4.017 4.017z" fill="#AFB6BB"/><path d="M212.34 4.414H23.584c-6.655 0-12.053 5.398-12.053 12.052v132.531H244.47V16.467c0-6.655-5.398-12.054-12.053-12.054H212.34z" fill="#495D72"/><path d="M228.405 20.479H119.968v128.518h108.437V20.478z" fill="#28384C"/><path d="M128.001 20.479H27.596v128.518H128V20.478z" fill="#22303A"/><path d="M71.77 100.802a4.058 4.058 0 01-1.795-.422 4.017 4.017 0 01-1.795-5.39l12.049-24.096a4.018 4.018 0 017.185 3.595L75.365 98.584a4.012 4.012 0 01-3.595 2.217zM43.66 88.753a4.005 4.005 0 01-2.839-1.176 4.011 4.011 0 010-5.679l12.05-12.049a4.011 4.011 0 015.678 0 4.011 4.011 0 010 5.68L46.5 87.576a4.006 4.006 0 01-2.84 1.176z" fill="#51E199"/><path d="M55.709 100.802a4.007 4.007 0 01-2.84-1.177L40.822 87.577a4.011 4.011 0 010-5.679 4.011 4.011 0 015.68 0l12.048 12.049a4.011 4.011 0 010 5.678 4.009 4.009 0 01-2.84 1.177zM111.935 88.753a4.005 4.005 0 01-2.839-1.176L97.047 75.528a4.011 4.011 0 010-5.679 4.012 4.012 0 015.679 0l12.048 12.049a4.01 4.01 0 010 5.679 4.005 4.005 0 01-2.839 1.176z" fill="#51E199"/><path d="M99.886 100.802a4.007 4.007 0 01-2.839-1.177 4.011 4.011 0 010-5.678l12.049-12.049a4.01 4.01 0 015.678 0 4.01 4.01 0 010 5.679l-12.048 12.048a4.007 4.007 0 01-2.84 1.177z" fill="#51E199"/><path d="M184.228 40.56h-40.162a4.018 4.018 0 010-8.033h40.162a4.018 4.018 0 010 8.032z" fill="#66D1FF"/><path d="M212.34 40.56h-12.048a4.018 4.018 0 01-4.017-4.017c0-2.217 1.8-4.016 4.017-4.016h12.048c2.217 0 4.017 1.8 4.017 4.016 0 2.217-1.8 4.017-4.017 4.017z" fill="#FFC757"/><path d="M212.34 56.624h-40.162a4.018 4.018 0 010-8.033h40.162c2.217 0 4.017 1.8 4.017 4.017 0 2.217-1.8 4.016-4.017 4.016zM156.115 56.624h-12.049a4.018 4.018 0 010-8.033h12.049a4.018 4.018 0 010 8.033z" fill="#51E199"/><path d="M184.228 72.69h-40.162a4.018 4.018 0 010-8.034h40.162a4.018 4.018 0 010 8.033zM212.34 72.69h-12.048a4.018 4.018 0 01-4.017-4.017c0-2.217 1.8-4.017 4.017-4.017h12.048c2.217 0 4.017 1.8 4.017 4.017 0 2.217-1.8 4.016-4.017 4.016zM212.34 88.754h-40.162a4.018 4.018 0 010-8.033h40.162c2.217 0 4.017 1.8 4.017 4.016 0 2.217-1.8 4.017-4.017 4.017z" fill="#F76363"/><path d="M156.115 88.754h-12.049a4.018 4.018 0 010-8.033h12.049a4.018 4.018 0 010 8.033zM212.34 136.948h-40.162a4.017 4.017 0 010-8.033h40.162c2.217 0 4.017 1.8 4.017 4.017 0 2.217-1.8 4.016-4.017 4.016z" fill="#FFC757"/><path d="M156.115 136.948h-12.049a4.017 4.017 0 010-8.033h12.049a4.017 4.017 0 010 8.033z" fill="#66D1FF"/><path d="M184.228 104.818h-40.162a4.017 4.017 0 010-8.032h40.162a4.017 4.017 0 010 8.032z" fill="#F76363"/><path d="M212.34 104.818h-12.048a4.018 4.018 0 01-4.017-4.016c0-2.217 1.8-4.016 4.017-4.016h12.048c2.217 0 4.017 1.799 4.017 4.016s-1.8 4.016-4.017 4.016z" fill="#FFC757"/><path d="M212.34 120.883h-40.162a4.017 4.017 0 010-8.032h40.162a4.018 4.018 0 014.017 4.016c0 2.217-1.8 4.016-4.017 4.016zM156.115 120.883h-12.049a4.017 4.017 0 010-8.032h12.049a4.017 4.017 0 010 8.032z" fill="#51E199"/></svg>
