<?xml version="1.0" encoding="UTF-8"?> <svg xmlns="http://www.w3.org/2000/svg" width="43.5" height="49.334" viewBox="0 0 43.5 49.334"><g id="HTML5-logo" transform="translate(-74.633 -100.62)"><path id="Trazado_41" data-name="Trazado 41" d="M78.592,145.022l-3.959-44.4h43.5l-3.963,44.4-17.814,4.939Z" fill="#e44d26"></path><path id="Trazado_42" data-name="Trazado 42" d="M256,172.822l14.394-3.991,3.387-37.938H256Z" transform="translate(-159.617 -26.643)" fill="#f16529"></path><path id="Trazado_43" data-name="Trazado 43" d="M155.787,187.327h-7.206l-.5-5.577h7.7V176.3H142.132l.13,1.461,1.338,15.007h12.187Z" transform="translate(-59.404 -66.609)" fill="#ebebeb"></path><path id="Trazado_44" data-name="Trazado 44" d="M168.352,342.308l-.024.006-6.065-1.638-.388-4.343h-5.467l.763,8.551,11.155,3.1.025-.007Z" transform="translate(-71.969 -207.446)" fill="#ebebeb"></path><path id="Trazado_49" data-name="Trazado 49" d="M255.843,268.217v5.446h6.706l-.632,7.063-6.074,1.639v5.666l11.164-3.094.082-.92,1.28-14.337.133-1.462H255.843Z" transform="translate(-159.479 -147.498)" fill="#fff"></path><path id="Trazado_50" data-name="Trazado 50" d="M255.843,176.3v5.446H269l.109-1.224.248-2.761.13-1.461Z" transform="translate(-159.479 -66.609)" fill="#fff"></path></g></svg> 